# xmcd CD database file
# Copyright (C) 1993-1998 Ti Kan
# 
# Track frame offsets:
#     150
#     23692
#     36927
#     63100
#     103252
#     124295
#     149770
#     166405
#     184909
#     213202
# 
# Disc length: 3042 seconds
# 
# Revision: 1
# Processed by: cddbd v1.4b41PL1 Copyright (c) Steve Scherf et al.
# Submitted via: DiscPlay 4.0.4
# 
DISCID=920be00a
DTITLE=dfgds - rteg
DYEAR=1900
DGENRE=
TTITLE0=dfgsdfg
TTITLE1=dfgdsfg
TTITLE2=dfgsdfg
TTITLE3=dfgsf
TTITLE4=dsfg
TTITLE5=gdfgdfg
TTITLE6=sdfgd
TTITLE7=sdfg
TTITLE8=dfgd
TTITLE9=d
EXTD=
EXTT0=
EXTT1=
EXTT2=
EXTT3=
EXTT4=
EXTT5=
EXTT6=
EXTT7=
EXTT8=
EXTT9=
PLAYORDER=
